<svg width="360" height="360" viewBox="0 0 360 360" xmlns="http://www.w3.org/2000/svg">
  <defs>
    <linearGradient id="bubbleGrad" x1="0%" y1="0%" x2="100%" y2="100%">
      <stop offset="0%" stop-color="#3B82F6"/>
      <stop offset="100%" stop-color="#8B5CF6"/>
    </linearGradient>

    <linearGradient id="faceGrad" x1="0%" y1="0%" x2="0%" y2="100%">
      <stop offset="0%" stop-color="#60A5FA"/>
      <stop offset="100%" stop-color="#2563EB"/>
    </linearGradient>
  </defs>

  <!-- Speech Bubble -->
  <path d="M60 50h240a40 40 0 0 1 40 40v150a40 40 0 0 1-40 40H190l-40 35v-35H60a40 40 0 0 1-40-40V90a40 40 0 0 1 40-40z"
        fill="url(#bubbleGrad)"/>

  <!-- Robot Head -->
  <circle cx="180" cy="165" r="68" fill="#FFFFFF"/>
  <circle cx="180" cy="165" r="54" fill="url(#faceGrad)"/>

  <!-- Eyes -->
  <circle cx="162" cy="160" r="6" fill="#FFFFFF"/>
  <circle cx="198" cy="160" r="6" fill="#FFFFFF"/>

  <!-- Smile -->
  <path d="M162 185q18 12 36 0" stroke="#FFFFFF" stroke-width="4" fill="none"/>

  <!-- Headset -->
  <rect x="110" y="145" width="14" height="40" rx="7" fill="#1E3A8A"/>
  <rect x="236" y="145" width="14" height="40" rx="7" fill="#1E3A8A"/>

  <!-- Mic -->
  <path d="M230 195q20 5 20 25" stroke="#1E3A8A" stroke-width="4" fill="none"/>

  <!-- Lightbulb -->
  <circle cx="180" cy="60" r="15" fill="#FACC15"/>
  <rect x="174" y="75" width="12" height="10" rx="3" fill="#92400E"/>
</svg>
